<svg width="180" height="180" fill="none" xmlns="http://www.w3.org/2000/svg"><rect width="180" height="180" rx="90" fill="#000"/><path fill-rule="evenodd" clip-rule="evenodd" d="M43 76.667C43 67.462 51.007 60 60.885 60h57.23C127.993 60 136 67.462 136 76.667v26.666c0 9.205-8.007 16.667-17.885 16.667h-57.23C51.007 120 43 112.538 43 103.333V76.667Zm8.425-4.725a9.423 9.423 0 0 0-1.271 4.725v26.666c0 5.523 4.804 10 10.73 10h57.231c5.927 0 10.731-4.477 10.731-10V76.667c0-2.443-.94-4.681-2.501-6.418L96.457 95.317c-3.938 3.303-9.874 3.433-13.974.306l-31.059-23.68Zm5.366-4.522 30.222 23.044c1.367 1.042 3.345.998 4.658-.103l28.109-23.575a11.604 11.604 0 0 0-1.665-.12h-57.23c-1.45 0-2.833.269-4.094.754Z" fill="#fff"/></svg>