<?xml version="1.0" encoding="UTF-8" standalone="no"?>
<svg
   viewBox="-1.43075e-06 0 180 180"
   version="1.1"
   id="svg1"
   width="180"
   height="180"
   xmlns="http://www.w3.org/2000/svg"
   xmlns:svg="http://www.w3.org/2000/svg">
  <defs
     id="defs1" />
  <path
     style="fill:#ffffff;stroke-width:11.3086"
     d="m 33.954502,33.949884 56.887131,-16.166612 57.242677,15.448096 15.28843,75.444192 c 0,0 -18.23786,62.36024 -46.11104,68.67881 -16.36338,3.70939 -44.067455,3.35552 -54.27605,-0.0466 -2.58929,-0.86291 -19.777512,-11.46724 -19.777512,-11.46724 L 25.421433,150.1699 11.555194,120.17186 Z"
     id="path2" />
  <path
     d="m 118.6875,177.21931 c -4.5,0.9094 -6.1875,-1.93247 -6.1875,-4.31965 0,-3.06922 0.1125,-12.84527 0.1125,-25.0085 0,-8.52562 -2.81252,-13.98202 -6.07502,-16.8239 C 126.5625,128.79376 147.6,121.06387 147.6,86.165643 c 0,-10.003399 -3.4875,-18.074323 -9.225,-24.440123 0.9,-2.2735 4.05,-11.594849 -0.9,-24.099098 0,0 -7.5375,-2.50085 -24.75,9.321349 -7.2,-2.04615 -14.849997,-3.069225 -22.499997,-3.069225 -7.649999,0 -15.299998,1.023075 -22.499998,3.069225 C 50.512507,35.239247 42.975007,37.626422 42.975007,37.626422 38.025008,50.130671 41.175008,59.45202 42.075008,61.72552 c -5.7375,6.3658 -9.225,14.550399 -9.225,24.440123 0,34.784547 20.924998,42.628117 40.949997,44.901617 -2.5875,2.2735 -4.95,6.25213 -5.7375,12.16323 -5.174999,2.38717 -18.112498,6.25212 -26.212497,-7.50255 -1.6875,-2.7282 -6.75,-9.43503 -13.837499,-9.32135 -7.5375,0.11367 -3.0375,4.31965 0.1125,6.02477 3.824999,2.15983 8.212499,10.23075 9.224999,12.84528 1.8,5.11537 7.649999,14.89142 30.262497,10.68545 0,7.61622 0.1125,14.77775 0.1125,16.93757 0,2.38718 -1.6875,5.11538 -6.187499,4.31965 m 0,0 C 24.774539,164.85463 -0.02032927,130.09072 1.107445e-5,90.939993 1.107445e-5,40.695647 40.275008,0 90.000003,0 139.725,0 180,40.695647 180,90.939993 179.99,130.01013 155.32252,164.72252 118.6875,177.21931"
     fill="#000000"
     id="path1"
     style="stroke-width:11.3086" />
</svg>
