<svg width="180" height="180" fill="none" xmlns="http://www.w3.org/2000/svg"><rect width="180" height="180" rx="90" fill="#000"/><path fill-rule="evenodd" clip-rule="evenodd" d="M89.996 50.655c12.816 0 14.333.05 19.395.28 4.679.214 7.221.995 8.913 1.652a14.864 14.864 0 0 1 5.525 3.592 14.847 14.847 0 0 1 3.591 5.525c.658 1.692 1.438 4.233 1.652 8.912.23 5.063.28 6.579.28 19.395 0 12.817-.05 14.333-.28 19.395-.214 4.68-.994 7.221-1.652 8.913a15.9 15.9 0 0 1-9.109 9.109c-1.691.658-4.233 1.438-8.912 1.652-5.06.23-6.579.28-19.395.28-12.817 0-14.335-.05-19.395-.28-4.68-.214-7.221-.994-8.913-1.652a14.871 14.871 0 0 1-5.525-3.591 14.863 14.863 0 0 1-3.591-5.525c-.658-1.692-1.439-4.234-1.652-8.913-.23-5.062-.28-6.579-.28-19.395 0-12.817.05-14.333.28-19.395.213-4.68.994-7.221 1.652-8.913a14.86 14.86 0 0 1 3.591-5.525 14.86 14.86 0 0 1 5.525-3.591c1.692-.658 4.233-1.439 8.913-1.652 5.062-.23 6.578-.28 19.395-.28l-.008.007ZM90.004 42c-13.036 0-14.67.055-19.79.29-5.119.234-8.605 1.051-11.654 2.236a23.562 23.562 0 0 0-8.505 5.537 23.563 23.563 0 0 0-5.536 8.505c-1.185 3.048-1.997 6.542-2.23 11.65-.232 5.108-.289 6.75-.289 19.786 0 13.035.055 14.67.29 19.789.234 5.12 1.044 8.599 2.229 11.647a23.563 23.563 0 0 0 5.536 8.501 23.521 23.521 0 0 0 8.505 5.538c3.048 1.187 6.543 1.999 11.65 2.231 5.108.233 6.755.29 19.79.29s14.67-.055 19.789-.29c5.12-.234 8.595-1.044 11.643-2.231a24.516 24.516 0 0 0 14.04-14.039c1.186-3.048 1.998-6.543 2.23-11.651.233-5.107.29-6.754.29-19.789 0-13.035-.055-14.67-.29-19.79-.234-5.119-1.044-8.594-2.23-11.642a23.546 23.546 0 0 0-5.535-8.501 23.564 23.564 0 0 0-8.505-5.54c-3.048-1.186-6.542-1.997-11.65-2.23-5.108-.232-6.75-.29-19.786-.29l.008-.007Zm-.008 23.36a24.645 24.645 0 1 0 0 49.29 24.645 24.645 0 0 0 0-49.29Zm0 40.65a16 16 0 0 1-14.785-9.88 16.004 16.004 0 1 1 14.785 9.88Zm31.381-41.625a5.76 5.76 0 1 1-11.52 0 5.76 5.76 0 0 1 11.52 0Z" fill="#fff"/></svg>